<svg xmlns="http://www.w3.org/2000/svg" width="256" height="256" viewBox="0 0 256 256">
  <defs>
    <linearGradient id="g" x1="0" y1="0" x2="1" y2="1">
      <stop offset="0" stop-color="#0ea5e9"/>
      <stop offset="1" stop-color="#22c55e"/>
    </linearGradient>
    <linearGradient id="g2" x1="1" y1="0" x2="0" y2="1">
      <stop offset="0" stop-color="#0f172a"/>
      <stop offset="1" stop-color="#1e293b"/>
    </linearGradient>
  </defs>
  <rect x="16" y="16" width="224" height="224" rx="40" fill="url(#g2)"/>
  <rect x="36" y="36" width="184" height="184" rx="32" fill="url(#g)" opacity="0.18"/>
  <path d="M72 92h112a12 12 0 0 1 12 12v48a12 12 0 0 1-12 12H72a12 12 0 0 1-12-12v-48a12 12 0 0 1 12-12z" fill="#0f172a" opacity="0.88"/>
  <path d="M92 116h72a8 8 0 0 1 0 16H92a8 8 0 0 1 0-16z" fill="#e2e8f0" opacity="0.92"/>
  <circle cx="192" cy="132" r="12" fill="#22c55e"/>
  <path d="M84 176h88" stroke="#94a3b8" stroke-width="10" stroke-linecap="round"/>
  <path d="M84 76h88" stroke="#94a3b8" stroke-width="10" stroke-linecap="round" opacity="0.7"/>
</svg>
